<svg width="519" height="372" viewBox="0 0 519 372" fill="none" xmlns="http://www.w3.org/2000/svg">
<path fill-rule="evenodd" clip-rule="evenodd" d="M90.8909 204.182C98.0233 198.991 101.56 190.491 104.221 189.045C106.18 187.98 106.144 180.636 110.068 178.036C115.335 174.548 132.118 171.954 138.224 171.469C144.085 171.003 154.278 171.981 159.777 174.127C168.947 177.706 172.604 184.532 176.643 193.326C176.643 193.326 85.9906 207.748 90.8909 204.182Z" fill="#EDB98A"/>
<path fill-rule="evenodd" clip-rule="evenodd" d="M223.91 210.247H78.978L28.8125 254.872L6.54645 442.442L38.2167 452.303L233.899 455.574L295.013 438.296L298.826 307.732L223.91 210.247Z" fill="#78E185"/>
<path fill-rule="evenodd" clip-rule="evenodd" d="M26.925 408.368C27.9348 407.864 28.9872 407.287 30.1401 407.247C32.1202 407.178 32.1229 404.097 30.1401 404.166C28.4107 404.227 26.8919 404.948 25.3701 405.708C23.5945 406.594 25.1564 409.25 26.925 408.368ZM30.1401 321.657C28.7888 321.659 27.4268 321.829 26.389 322.774C25.7721 323.336 25.821 324.384 26.389 324.952C26.997 325.56 27.9528 325.512 28.5678 324.952C28.3672 325.134 28.5659 324.954 28.6387 324.913C28.656 324.904 28.6656 324.898 28.6703 324.893C28.6856 324.89 28.701 324.887 28.7261 324.88C28.8871 324.84 29.0461 324.8 29.209 324.771C29.2117 324.778 29.5529 324.748 29.633 324.745C29.8024 324.739 29.9711 324.738 30.1401 324.738C30.9758 324.737 31.6805 324.034 31.6805 323.198C31.6805 322.366 30.9727 321.657 30.1401 321.657ZM44.6251 356.212C45.0664 358.147 48.0358 357.323 47.5957 355.393C46.9557 352.587 47.0724 349.712 47.5957 346.896C47.9561 344.955 44.9867 344.131 44.6251 346.077C43.9974 349.455 43.8569 352.845 44.6251 356.212ZM48.5161 245.501C50.8104 244.956 53.0797 244.892 55.4264 244.891C57.4119 244.89 57.4088 241.809 55.4264 241.81C52.809 241.811 50.2539 241.923 47.697 242.531C45.7661 242.989 46.5887 245.959 48.5161 245.501ZM56.2039 320.535C57.5343 319.87 58.8656 319.204 60.1961 318.539C61.9721 317.652 60.4098 314.995 58.6415 315.879L54.6489 317.876C52.8737 318.763 54.4355 321.419 56.2039 320.535ZM56.758 381.199C58.4458 383.632 60.8191 385.144 63.6672 385.899C65.5888 386.409 66.4013 383.436 64.4863 382.929C62.4496 382.389 60.6401 381.406 59.4182 379.644C58.2949 378.025 55.6255 379.566 56.758 381.199ZM67.4029 272.74C67.8596 271.886 68.547 271.526 69.4004 271.507C71.3828 271.461 71.3832 268.381 69.4004 268.426C67.4557 268.47 65.6724 269.447 64.7431 271.185C63.8078 272.934 66.4683 274.489 67.4029 272.74ZM86.943 293.679C87.4952 294.28 88.5661 294.265 89.1214 293.679C89.4614 293.32 89.7471 292.919 89.972 292.48C90.0575 292.313 90.138 292.143 90.232 291.981C90.2739 291.909 90.3205 291.837 90.3683 291.768C90.3845 291.754 90.418 291.719 90.4526 291.683C91.0445 291.057 91.0295 290.133 90.4526 289.504C89.9 288.903 88.8291 288.918 88.2738 289.504C87.9342 289.863 87.6481 290.264 87.4236 290.703C87.3381 290.87 87.2576 291.04 87.1632 291.202C87.1213 291.274 87.0747 291.346 87.0269 291.415C87.0107 291.429 86.9776 291.464 86.943 291.5C86.3507 292.126 86.3657 293.05 86.943 293.679ZM88.5857 339.166C90.592 340.084 92.7924 340.084 94.7987 339.166C95.5585 338.819 95.7387 337.722 95.3509 337.059C94.9019 336.291 93.9996 336.161 93.2437 336.506C92.3338 336.923 91.0491 336.922 90.1403 336.506C89.3809 336.159 88.4875 336.282 88.0331 337.059C87.643 337.726 87.829 338.82 88.5857 339.166ZM94.0582 371.364C94.4028 372.18 95.1472 372.613 96.0175 372.646C96.8797 372.679 97.5216 371.914 97.5578 371.106C97.5809 370.584 97.2987 370.138 96.8932 369.861C96.8928 369.833 96.892 369.804 96.892 369.775C96.8916 368.912 96.1865 368.272 95.3517 368.235C94.5203 368.198 93.8109 368.97 93.8113 369.775C93.8117 370.319 93.8452 370.859 94.0582 371.364ZM102.006 422.551C104.465 422.591 106.867 423.176 109.326 423.217C111.312 423.248 111.306 420.168 109.326 420.136C106.867 420.096 104.465 419.51 102.006 419.471C100.02 419.438 100.026 422.519 102.006 422.551ZM112.23 225.143C113.669 226.514 115.446 227.189 117.199 228.046C118.975 228.913 120.535 226.256 118.754 225.386C117.269 224.66 115.625 224.124 114.408 222.965C112.971 221.597 110.791 223.773 112.23 225.143ZM116.092 260.65C117.102 260.146 118.155 259.57 119.307 259.529C121.288 259.46 121.29 256.38 119.307 256.449C117.578 256.509 116.059 257.23 114.537 257.99C112.761 258.876 114.323 261.533 116.092 260.65ZM134.612 403.157C135.067 402.303 135.755 401.943 136.608 401.924C138.591 401.879 138.592 398.798 136.608 398.843C134.664 398.888 132.88 399.864 131.951 401.602C131.016 403.352 133.676 404.906 134.612 403.157ZM141.025 336.264C141.638 335.701 141.595 334.656 141.025 334.086C140.359 333.42 139.694 332.755 139.028 332.09C138.42 331.481 137.465 331.525 136.85 332.09C136.237 332.652 136.28 333.697 136.85 334.268C137.516 334.933 138.181 335.598 138.846 336.264C139.456 336.873 140.41 336.828 141.025 336.264ZM148.586 440.517C150.809 440.465 152.892 439.827 154.984 439.131C156.859 438.507 156.051 435.533 154.165 436.161C152.347 436.766 150.52 437.391 148.586 437.436C146.604 437.482 146.603 440.563 148.586 440.517ZM158.568 374.643C160.576 374.587 162.241 373.564 163.649 372.195C165.074 370.81 162.893 368.634 161.471 370.017C160.665 370.8 159.735 371.53 158.568 371.562C156.586 371.617 156.584 374.698 158.568 374.643ZM152.369 289.928C152.345 290.748 151.999 291.627 151.489 292.166C150.128 293.608 152.304 295.789 153.668 294.344C154.793 293.153 155.403 291.558 155.45 289.928C155.507 287.942 152.426 287.95 152.369 289.928ZM175.868 222.835C176.512 221.573 177.357 220.093 178.642 219.395C180.387 218.449 178.831 215.79 177.087 216.735C175.34 217.683 174.091 219.552 173.208 221.28C172.306 223.044 174.966 224.601 175.868 222.835ZM179.861 254.872C180.576 254.851 181.285 254.729 181.974 254.542C182.269 254.462 182.56 254.37 182.855 254.29C182.981 254.256 183.518 254.189 183.188 254.206C184.022 254.162 184.729 253.537 184.729 252.666C184.729 251.865 184.02 251.081 183.188 251.126C182.045 251.187 181.005 251.759 179.861 251.791C177.88 251.847 177.878 254.928 179.861 254.872ZM189.842 304.111H193.17C195.155 304.111 195.152 301.03 193.17 301.03H189.842C187.857 301.03 187.86 304.111 189.842 304.111ZM193.723 440.306C194.732 440.811 195.921 441.289 196.739 442.062C198.18 443.424 200.361 441.248 198.917 439.883C197.876 438.9 196.545 438.28 195.278 437.647C194.531 437.273 193.613 437.442 193.17 438.199C192.77 438.884 192.979 439.934 193.723 440.306ZM201.157 401.384C201.286 401.348 201.423 401.323 201.553 401.305C202.077 401.234 202.625 401.259 203.151 401.258C205.136 401.257 205.133 398.177 203.151 398.178C201.589 398.179 199.963 398.201 198.734 399.295C198.111 399.85 198.171 400.91 198.734 401.473C199.347 402.085 200.292 402.026 200.913 401.473C200.847 401.531 201.072 401.407 201.157 401.384ZM203.15 349.036C202.703 348.113 202.696 347.512 202.695 346.486C202.694 344.501 199.613 344.504 199.614 346.486C199.615 347.975 199.837 349.243 200.49 350.591C200.855 351.343 201.922 351.539 202.597 351.144C203.354 350.701 203.513 349.784 203.15 349.036ZM212.058 276.775C213.844 277.382 215.439 278.243 217.013 279.281C218.674 280.377 220.215 277.708 218.568 276.621C216.772 275.436 214.915 274.497 212.877 273.804C210.992 273.163 210.191 276.14 212.058 276.775ZM222.448 224.929C223.776 224.966 225.146 225.475 226.329 226.049C228.107 226.913 229.667 224.255 227.883 223.389C226.194 222.568 224.345 221.902 222.448 221.848C220.462 221.793 220.47 224.873 222.448 224.929ZM227.106 363.331C227.629 363.354 228.075 363.072 228.351 362.666C228.38 362.666 228.409 362.665 228.437 362.665C229.301 362.665 229.94 361.96 229.978 361.125C230.015 360.294 229.243 359.585 228.437 359.585C227.893 359.585 227.354 359.618 226.849 359.832C226.033 360.176 225.599 360.92 225.566 361.791C225.533 362.653 226.298 363.295 227.106 363.331ZM234.682 256.813C236.574 257.431 237.377 254.455 235.501 253.842C233.299 253.123 231.049 252.566 228.847 251.846C226.955 251.228 226.151 254.204 228.028 254.817C230.229 255.536 232.48 256.093 234.682 256.813ZM241.591 314.957C242.178 316.848 245.15 316.036 244.562 314.138C243.994 312.306 243.953 310.462 243.952 308.559C243.95 306.574 240.87 306.577 240.871 308.559C240.872 310.725 240.945 312.872 241.591 314.957ZM262.188 384.599C262.3 385.366 262.909 385.919 263.705 385.954C264.516 385.991 265.275 385.22 265.245 384.414C265.189 382.863 263.924 381.6 262.374 381.543C261.511 381.511 260.87 382.274 260.834 383.083C260.798 383.87 261.455 384.484 262.188 384.599ZM272.612 296.071C274.239 296.615 275.979 297.132 277.255 298.337C278.697 299.697 280.878 297.522 279.433 296.158C277.751 294.57 275.586 293.82 273.43 293.1C271.543 292.47 270.74 295.447 272.612 296.071ZM279.676 355.914C280.123 356.679 281.03 356.817 281.783 356.467C282.794 355.997 283.909 356.013 284.999 356.012C286.984 356.01 286.981 352.929 284.999 352.931C283.318 352.932 281.768 353.091 280.228 353.807C279.471 354.159 279.286 355.248 279.676 355.914ZM283.668 428.54C284.53 428.571 285.172 427.808 285.208 426.999C285.244 426.213 284.587 425.599 283.853 425.484C283.742 424.717 283.133 424.164 282.337 424.128C281.526 424.092 280.767 424.862 280.797 425.669C280.853 427.219 282.117 428.483 283.668 428.54ZM3.00742 440.187C3.53073 438.304 4.72836 436.783 5.6333 435.089C5.93674 434.518 6.04227 434.163 6.2067 433.745C6.43005 434.192 6.86365 434.528 7.51559 434.528C8.76636 434.529 10.2293 434.448 11.3965 434.983C12.1555 435.331 13.0497 435.208 13.5037 434.431C13.8938 433.764 13.7074 432.67 12.9511 432.323C11.2309 431.535 9.38171 431.448 7.51559 431.447C7.05466 431.447 6.70578 431.617 6.45932 431.872C5.74612 422.107 5.76385 412.335 6.43851 402.562C7.15823 392.119 8.81448 381.884 10.5474 371.576C11.3865 366.578 12.4763 361.53 12.2645 356.439C12.0527 351.383 9.88464 346.67 11.4211 341.598C12.0373 339.565 13.0924 337.702 13.7779 335.692C14.5134 333.527 14.4479 331.39 14.1129 329.149C13.4236 324.586 12.2802 320.077 14.1094 315.622C14.9177 313.646 16.2274 311.883 16.8586 309.842C17.6441 307.304 17.5363 304.497 17.6672 301.867C17.9329 296.561 18.0022 291.22 18.4416 285.925C18.6376 283.553 19.0651 281.305 20.0393 279.129C20.9755 277.034 22.3653 275.128 22.9853 272.906C23.6014 270.719 23.6553 268.413 23.9865 266.175C24.333 263.811 24.876 261.481 25.6077 259.21C28.4342 250.415 33.6136 242.513 39.7326 235.663C46.2367 228.381 54.0116 222.898 62.264 217.788C66.6035 215.101 70.9426 212.414 75.2791 209.727C75.3715 210.231 75.6931 210.694 76.3104 210.901C77.9389 211.444 79.6775 211.961 80.9541 213.166C82.3959 214.527 84.5774 212.351 83.1325 210.988C81.6253 209.565 79.7311 208.816 77.8033 208.158C79.7792 206.912 81.7763 205.623 84.0059 204.903C85.9587 204.272 88.8387 204.823 90.4218 203.39C91.6653 202.262 92.0584 200.171 92.5356 198.638C93.1324 196.736 93.6485 194.73 94.4071 192.882C94.9231 191.619 95.674 190.406 96.6213 189.428C97.0372 187.826 97.8001 186.362 99.1479 185.473C102.675 183.139 107.007 185.458 108.559 188.785C109.841 188.781 111.193 189.062 112.441 189.139C115.005 189.301 117.574 189.374 120.142 189.366C125.168 189.351 130.197 189.023 135.18 188.357C144.091 187.163 152.736 184.757 161.497 182.881C161.547 182.766 161.604 182.65 161.674 182.535C163.561 179.37 168.263 179.905 171.224 181.102C172.495 181.615 173.789 182.262 174.516 183.463C175.287 183.983 175.953 184.614 176.396 185.28C177.312 186.655 178.021 189.428 179.881 189.659C181.105 189.809 182.349 189.574 183.593 189.751C185.149 189.967 186.543 190.514 187.979 191.137C198.915 195.885 210.222 201.164 222.09 203.005C224.874 203.436 227.708 203.883 230.127 205.443C232.091 206.709 233.608 208.45 235.229 210.102C236.808 211.711 238.109 212.424 240.362 212.713C243.096 213.063 245.465 213.818 247.463 215.805C249.123 217.457 250.205 219.567 251.507 221.484C252.832 223.441 254.776 224.542 256.794 225.678C261.565 228.366 266.009 231.612 269.879 235.505C278.031 243.714 282.968 254.265 287.943 264.547C293.323 275.667 298.352 286.923 301.841 298.798C305.261 310.458 307.294 322.453 308.234 334.559C309.223 347.263 309.362 360.016 310.186 372.727C310.598 379.077 310.91 385.435 311.226 391.788C311.534 398.065 311.984 404.353 311.911 410.637C311.772 422.786 309.343 434.973 305.095 446.348C304.036 449.179 302.862 451.97 301.61 454.72C300.513 457.134 296.758 456.864 295.58 454.72C295.31 454.227 295.098 453.718 294.921 453.202C291.84 453.229 288.729 452.991 285.668 453.276C280.261 453.78 274.843 454.061 269.421 454.396C258.692 455.062 247.945 455.505 237.212 456.117C236.171 456.177 235.13 456.236 234.089 456.298C241.737 432.627 240.745 407.036 241.955 382.418C242.053 380.433 238.971 380.445 238.875 382.418C237.659 407.141 238.694 432.798 230.775 456.508C227.703 456.716 224.635 456.97 221.578 457.342C219.106 457.638 216.622 457.989 214.126 457.866C211.296 457.731 208.531 457.084 205.77 456.522C200.752 455.501 195.919 455.963 190.883 456.591C185.495 457.265 180.089 457.638 174.667 457.873C152.955 458.824 131.098 459.691 109.395 458.239C104.142 457.889 98.901 457.396 93.6831 456.726C88.3073 456.037 82.9893 454.878 77.6177 454.219C72.3228 453.572 67.4549 455.347 62.2216 455.675C56.8847 456.01 51.4046 454.897 46.1173 454.258C44.3925 454.048 42.6658 453.845 40.9387 453.643C43.1622 438.404 44.4264 423.051 45.6544 407.703C45.8127 405.723 42.7309 405.74 42.5738 407.703C41.3557 422.931 40.1196 438.17 37.8996 453.289C28.7442 452.224 19.58 451.146 10.5201 449.487C7.93997 449.017 5.37531 448.25 3.83112 445.948C2.68777 444.242 2.45636 442.151 3.00742 440.187Z" fill="black"/>
<path fill-rule="evenodd" clip-rule="evenodd" d="M72.5219 117.061C73.349 109.778 72.2785 94.5539 72.2068 93.629C71.7533 87.7818 74.4874 64.692 79.6559 66.8194C88.3259 59.9418 99.8736 58.4231 110.672 57.6976C133.101 56.1904 156.961 59.6503 174.28 74.7757C182.845 82.6307 191.184 94.0552 190.514 105.951C198.296 117.226 209.266 132.693 199.57 145.875C196.275 150.087 191.036 151.655 186.896 154.845C178.568 161.576 173.344 171.235 164.937 177.926C142.664 197.982 104.845 202.171 82.9623 179.36C66.0408 162.839 68.7769 138.123 71.7533 117.061C73.7544 102.902 70.9081 131.271 72.5219 117.061Z" fill="#EDB98A"/>
<path fill-rule="evenodd" clip-rule="evenodd" d="M140.634 26.8103C134.635 25.5974 128.476 24.8426 122.35 25.0698L121.878 25.0882C117.269 25.2728 111.432 25.6811 107.411 28.3668C107.18 28.1342 106.808 28.0148 106.47 28.1762C101.692 30.4615 96.4371 32.1138 91.4062 33.7558C86.3983 35.3896 81.2029 36.4682 75.9542 36.9029C73.9794 37.0666 72.2894 39.2033 73.5398 41.1198C73.8372 41.5765 74.1269 42.0378 74.4155 42.5003C73.9329 42.4498 73.4502 42.3978 72.9676 42.3489C71.3794 42.1887 69.7927 43.8873 69.8869 45.4368C69.9457 46.4114 70.0506 47.3744 70.2058 48.3259C69.601 48.3132 68.9996 48.4041 68.4186 48.6502C65.4766 49.8951 65.6814 53.4065 65.9016 56.0781C66.2067 59.7855 67.5905 63.7125 70.1597 66.4872C68.2414 68.4838 66.8834 70.8682 66.0733 73.6999C65.4858 75.7677 65.1588 77.9703 65.3202 80.1229L65.3716 80.7673C65.5712 83.1032 65.968 85.6894 67.645 87.3698C68.5058 88.2362 69.5664 88.552 70.5774 88.4519C69.966 93.8351 69.5741 99.2491 69.2052 104.644L69.0322 107.222C68.2093 119.691 67.5909 132.24 67.7526 144.729C67.9029 156.401 70.2043 167.729 77.3479 177.206C83.854 185.835 93.1953 192.197 103.763 194.615C109.458 195.92 115.272 196.013 121.036 195.181C123.83 194.777 126.642 194.157 129.294 193.179C132.23 192.093 134.339 190.495 136.315 188.1C137.249 186.964 136.799 184.545 134.939 184.773C132.126 185.114 129.557 185.526 126.86 186.36L126.474 186.482C123.787 187.345 121.005 187.988 118.197 188.261C112.444 188.82 106.603 188.257 101.092 186.509C92.1194 183.66 84.3916 177.31 79.4384 169.331C73.559 159.874 72.8942 149.138 72.9791 138.264C73.0701 126.332 73.4574 114.392 74.0896 102.472L74.1973 100.485C74.5316 94.3511 74.8544 88.2131 75.1384 82.0751C75.2267 80.1498 75.3612 78.2091 75.6037 76.2876C77.8206 74.9861 79.8073 73.1917 81.1023 70.9775C83.7038 72.0557 86.4398 72.8335 88.9572 73.4535C94.7882 74.8906 100.842 75.2394 106.777 74.3395C108.378 75.0022 110.011 75.5848 111.669 76.0862C112.117 76.2853 112.565 76.4809 113.012 76.6727C117.009 78.3862 121.063 79.8379 125.282 80.9007L126.319 81.1597C128.539 81.7082 130.951 82.2483 133.313 82.4179C133.702 82.568 134.12 82.6951 134.578 82.8068C136.73 83.3305 138.963 83.4961 141.168 83.3112C143.316 83.1302 144.869 80.9546 143.685 78.9176C142.821 77.4312 141.948 75.9487 141.068 74.4701C144.131 75.7485 147.293 76.8113 150.483 77.7123C153.703 78.6211 156.969 79.3874 160.24 80.0921C161.988 80.4656 163.744 80.7967 165.489 81.1702C166.738 81.4359 168.655 81.5746 169.674 82.3986C170.799 83.3035 171.118 85.4137 171.545 86.7152C172.106 88.4057 172.633 90.1038 173.113 91.8212C174.069 95.2483 174.853 98.7254 175.461 102.237C176.068 105.753 176.475 109.303 176.702 112.865C176.928 116.423 176.829 120.004 177.194 123.547C177.39 125.426 179.403 126.393 180.89 125.079C181.065 124.925 181.241 124.77 181.415 124.612L181.674 124.375C182.947 123.22 184.18 121.995 185.198 120.617C185.382 120.362 185.559 120.097 185.724 119.827C185.751 119.827 185.774 119.819 185.801 119.8L186.084 119.587C189.191 117.269 194.384 114.247 197.414 118.098C198.38 119.325 198.874 120.887 199.284 122.394L200.005 125.091C200.47 126.852 200.909 128.623 201.165 130.424C201.745 134.46 201.453 139.111 198.682 142.346C197.575 143.64 196.05 144.564 194.348 144.806C193.398 144.937 192.461 144.776 191.519 144.656C190.562 144.537 189.641 144.729 188.683 144.637C187.162 144.487 186.497 146.312 187.066 147.46C187.373 148.076 187.735 148.607 188.145 149.058C187.815 149.343 187.5 149.651 187.196 149.974C186.297 150.263 185.49 150.883 184.887 151.703C184.399 152.365 184.146 153.085 184.103 153.844C184.049 154.033 184.003 154.225 183.961 154.422L183.136 155.762C182.955 156.056 182.774 156.347 182.593 156.632C180.495 159.943 178.166 162.747 175.272 165.388C172.486 167.93 169.462 170.205 166.845 172.932L166.537 173.255C164.097 175.832 161.525 178.951 162.48 182.697C162.726 183.66 164.067 184.353 164.943 183.702C167.76 181.607 169.178 178.288 171.568 175.747C174.028 173.128 176.752 170.775 179.219 168.165C181.552 165.7 183.392 162.908 184.779 159.836C185.333 160.448 186.139 160.883 187.258 161.052C189.179 161.341 190.97 160.213 191.808 158.546C192.346 158.784 192.895 159 193.449 159.169C196.362 160.063 198.194 156.817 197.095 154.418C196.508 153.132 195.774 152.015 194.862 151.075C197.71 150.683 200.608 149.208 202.479 147.367C207.175 142.742 207.82 135.792 206.763 129.612C206.202 126.335 205.234 123.019 203.977 119.943C203.759 119.407 203.524 118.868 203.267 118.337C203.409 118.333 203.555 118.271 203.647 118.152C204.497 116.989 205.53 116.038 206.161 114.737C206.741 113.543 207.386 112.334 207.844 111.09C208.785 108.545 209.246 105.672 209.553 102.98C210.187 97.4701 209.942 91.9945 209.1 86.5188C207.667 77.1925 204.205 68.2674 199.106 60.4359C199.383 60.2897 199.649 60.1132 199.897 59.9045L200.02 59.7975L200.219 59.6173C201.674 58.2976 201.548 55.8244 200.219 54.4878L199.799 54.066C199.267 53.5366 198.809 53.1173 197.95 52.5409C197.823 52.4558 197.693 52.3757 197.562 52.301C198.012 51.4685 198.168 50.495 197.855 49.4211C196.763 45.6798 191.391 45.8122 187.986 47.4438C184.219 44.0748 180.042 41.1502 175.515 38.7821C164.732 33.1447 152.539 29.2131 140.634 26.8103ZM196.373 125.349C194.359 124.691 191.684 126.073 189.875 126.905C187.58 127.96 185.628 129.519 183.738 131.167C182.796 131.991 182.628 133.339 182.862 134.49C182.885 134.606 182.908 134.725 182.935 134.845C183.185 136.073 184.553 137.04 185.763 137.005C188.296 136.936 189.502 134.745 190.935 132.889C191.104 133.189 191.316 133.466 191.577 133.674L191.754 133.813C192.349 134.267 193.005 134.629 193.791 134.594C194.348 134.567 194.882 134.425 195.374 134.167C196.604 133.516 197.145 131.922 196.811 130.624C196.604 129.808 196.127 129.169 195.505 128.726L195.737 128.567C196.233 128.221 196.686 127.856 197.039 127.317L197.118 127.19H197.088C197.472 126.527 197.222 125.626 196.373 125.349Z" fill="black"/>
<path fill-rule="evenodd" clip-rule="evenodd" d="M101.261 164.1C104.098 164.921 107.143 164.995 110.035 164.146C112.658 163.377 115.35 161.683 117.281 159.442C118.996 157.451 120.106 155.031 120.062 152.449C120.057 152.154 119.952 151.907 119.79 151.716C119.615 151.511 119.371 151.369 119.11 151.308C118.841 151.245 118.557 151.267 118.315 151.377C118.096 151.477 117.908 151.646 117.791 151.893C117.494 152.282 117.199 152.666 116.902 153.039C114.517 155.985 112.207 158.185 108.62 158.975C106.674 159.403 104.731 159.213 102.947 158.56C101.039 157.86 99.313 156.63 97.9607 155.056C97.3496 154.344 96.6282 154.054 95.9227 154.049C95.1232 154.043 94.333 154.415 93.7377 155.009C93.1526 155.592 92.7608 156.385 92.7253 157.215C92.6941 157.943 92.9316 158.703 93.5636 159.382C95.645 161.617 98.3426 163.255 101.261 164.1ZM101.349 127.214C98.4411 128.981 94.0103 133.103 97.1386 137.484C100.821 141.348 106.122 136.918 108.735 134.915C111.157 133.362 113.879 137.355 111.632 139.168C92.7534 153.144 85.0921 127.676 99.8782 125.136C101.506 124.856 102.111 126.667 101.349 127.214ZM128.551 119.436C129.486 118.839 130.585 118.634 131.804 119.188C132.756 119.621 134.426 121.064 135.588 122.962C136.383 124.26 136.947 125.783 136.83 127.369C136.803 127.738 136.939 128.009 137.153 128.21C137.323 128.369 137.568 128.485 137.856 128.522C138.1 128.553 138.373 128.525 138.596 128.455C139.019 128.323 139.242 128.049 139.327 127.825C140.14 125.664 139.79 123.252 138.878 121.077C137.647 118.141 135.412 115.681 133.947 114.888C131.441 113.531 128.485 113.468 125.975 114.851C123.839 116.028 122.503 117.928 121.175 119.865C120.892 120.277 120.612 120.686 120.322 121.087C119.742 121.892 119.684 122.69 119.909 123.374C120.158 124.132 120.793 124.772 121.587 125.106C122.321 125.416 123.173 125.459 123.927 125.142C124.564 124.873 125.148 124.349 125.518 123.461C126.141 121.965 127.179 120.314 128.551 119.436ZM81.0833 122.765C81.7234 123.099 82.2242 123.199 82.9342 122.986C83.3269 122.868 83.715 122.642 84.0188 122.339C84.3199 122.037 84.5372 121.663 84.6216 121.248C84.8293 120.222 85.3903 119.263 86.1896 118.637C86.8729 118.103 87.7352 117.819 88.6918 117.979C89.724 118.151 90.7074 118.813 91.3847 119.594C91.6111 119.855 91.7885 120.151 91.9669 120.446C92.3007 120.997 92.625 121.509 93.0853 121.914C93.2597 122.068 93.5226 122.174 93.7772 122.174C93.8807 122.174 93.9858 122.157 94.0858 122.126C95.1132 121.095 95.3108 120.313 95.2776 119.537C95.2429 118.723 94.9221 117.9 94.4038 117.131C93.1878 115.328 90.8791 113.85 89.3212 113.515C87.1877 113.057 85.0688 113.607 83.37 114.799C81.622 116.025 80.3267 117.928 79.9229 120.074C79.8258 120.59 79.8671 121.148 80.0638 121.632C80.2561 122.104 80.5912 122.509 81.0833 122.765ZM123.846 100.215C125.126 101.462 126.642 101.655 128.175 101.827C129.027 101.924 129.707 102.001 130.376 102.152C132.215 102.568 134.033 103.193 135.692 104.093C137.426 105.035 139.315 106.17 140.675 107.625C140.998 107.971 141.303 108.334 141.608 108.698C141.886 109.03 142.154 109.349 142.437 109.657C142.761 110.011 143.069 110.382 143.376 110.752C143.565 111.064 143.602 111.141 143.641 111.221C143.698 111.341 143.765 111.475 143.841 111.619C143.946 111.817 144.068 112.033 144.196 112.229C144.409 112.587 144.524 112.686 144.623 112.73C144.787 112.803 144.942 112.839 145.093 112.819C145.235 112.801 145.368 112.733 145.5 112.622C146.157 112.066 146.351 111.155 146.331 110.188C146.301 108.719 145.759 107.094 145.26 106.095C144.099 103.773 142.49 101.359 140.554 99.6262C138.345 97.6481 135.928 96.1506 133.153 95.1187C131.428 94.4772 129.431 93.8884 127.551 93.9628C126.199 94.0163 124.907 94.4184 123.841 95.4225C123.186 96.0388 122.872 96.9156 122.872 97.7917C122.872 98.6853 123.198 99.5841 123.846 100.215ZM78.4793 111.638C78.5607 111.771 78.6734 111.863 78.7988 111.918C78.9303 111.976 79.077 111.993 79.2179 111.969C79.3581 111.946 79.4914 111.882 79.5971 111.785C79.6984 111.692 79.7756 111.568 79.8101 111.417C80.6602 107.684 82.3108 104.906 85.8339 103.115C87.567 102.234 89.5598 101.674 91.4464 101.227C91.9946 101.098 92.5739 101.014 93.1573 100.928C94.9856 100.661 96.8271 100.356 98.019 98.878C98.7372 97.9878 99.0387 96.8494 98.8682 95.8082C98.7078 94.8279 98.1349 93.9291 97.0935 93.3904C94.501 92.05 91.2792 93.3653 88.6611 94.4857C88.4669 94.5688 88.2762 94.6504 88.0897 94.7291C85.5294 95.8098 83.1943 97.2363 81.2748 99.2762C79.7517 100.895 78.3406 103.287 77.7723 105.748C77.2995 107.796 77.4106 109.886 78.4793 111.638Z" fill="black"/>
<path fill-rule="evenodd" clip-rule="evenodd" d="M93.1929 170.319C96.7792 167.124 100.799 160.701 105.951 165.783C107.225 167.219 107.741 170.439 109.69 171.07C112.278 171.91 114.842 169.172 115.724 167.069C119.333 155.387 104.417 152.183 95.9193 154.07C91.7681 155.775 88.7105 162.637 88.5257 166.218C88.4063 168.625 90.4434 172.164 93.1929 170.319ZM66.1368 152.313C66.1718 152.158 66.2207 152.018 66.2797 151.891C67.8658 151.291 69.1208 151.903 69.8964 153.045C69.871 153.328 69.7863 153.616 69.7327 153.898C70.3312 155.158 70.871 156.718 71.682 157.808C71.8422 157.82 72.0082 157.803 72.1676 157.757C85.6121 159.161 79.0483 145.095 92.6846 141.601C103.226 139.862 122.277 141.854 127.25 152.825C131.172 170.348 151.112 158.138 157.66 149.025C164.646 140.731 169.163 130.596 173.518 120.761C174.438 118.68 177.311 120.168 176.998 122.165C181.024 130.24 180.89 139.94 181.887 148.787C183.583 166.436 185.235 191.188 168.836 201.964C147.468 226.115 94.1117 234.637 69.467 212.447C60.9358 194.106 61.9875 171.731 66.1368 152.313Z" fill="black"/>
<path fill-rule="evenodd" clip-rule="evenodd" d="M80.1714 98.5771C71.1327 98.5771 65.9746 100.521 64.0844 100.672L64.0276 100.676C63.2414 100.727 62.5361 100.792 61.7962 101.078C59.0753 102.126 58.6321 104.98 60.2199 106.778C60.3313 110.499 59.8419 114.847 60.6816 118.58C61.7176 134.318 69.1193 136.974 73.3266 137.944C75.4389 138.431 77.9424 138.624 80.1861 138.11C84.0138 137.968 87.7979 136.769 91.0355 134.683C95.5446 131.775 98.8936 127.305 99.9804 122.001C100.495 119.472 100.736 116.84 100.456 114.27L100.414 113.916C101.88 113.215 103.578 113.083 105.329 113.021C106.165 112.991 106.99 112.964 107.791 113C108.573 113.087 109.347 113.204 110.123 113.362C110.97 113.618 111.77 114.04 112.509 114.708L112.559 115.683C112.698 118.119 113.018 120.562 113.511 122.952C114.24 126.478 115.411 129.846 117.905 132.347C118.749 133.608 119.793 134.733 121.061 135.707C125.667 139.253 131.924 140.555 137.667 140.065C149.327 139.07 156.066 129.815 157.619 125.859L157.712 125.62C158.834 122.679 159.728 118.863 163.273 118.231L164.027 118.095C165.645 117.792 167.137 117.369 168.086 115.791C168.502 115.102 168.716 114.331 168.768 113.545C169.322 113.588 169.874 113.628 170.425 113.668C174.818 114.597 201.169 115.385 203.272 115.385C203.272 115.385 207.315 117.086 209.022 115.768C210.205 114.851 210.594 113.629 209.943 112.245C208.96 110.162 204.426 108.91 202.413 108.513C202.413 108.513 169.926 108.783 167.587 108.339C166.141 106.848 163.553 107.052 161.39 106.816C159.6 105.54 157.096 104.685 155.118 104.113C154.715 103.96 154.315 103.812 153.927 103.673C150.301 102.381 146.531 101.697 142.704 101.33C138.758 100.955 134.8 101.125 130.877 101.662C129.224 101.887 127.586 102.177 125.959 102.556C123.047 102.94 120.152 103.572 117.239 104.322L116.656 104.474C113.588 105.278 110.436 105.973 107.26 105.428C104.675 104.987 102.189 103.992 99.8051 102.917L99.4948 102.776C94.2535 100.383 86.0683 98.5771 80.1714 98.5771ZM126.275 107.327C128.208 106.901 129.034 109.883 127.094 110.309C125.721 110.611 124.556 111.304 123.77 112.478L123.687 112.605C122.631 114.285 119.962 112.735 121.025 111.044C122.221 109.142 124.079 107.809 126.275 107.327ZM69.6338 105.478C70.3156 104.998 71.3472 105.354 71.743 106.033C72.1786 106.78 71.8931 107.612 71.2546 108.101L71.1896 108.149C70.6039 108.562 70.0336 109.301 69.9619 110.06L69.9556 110.154C69.8789 112.138 66.7954 112.148 66.8725 110.154C66.9477 108.204 68.0772 106.574 69.6338 105.478Z" fill="black"/>
<path fill-rule="evenodd" clip-rule="evenodd" d="M481.541 272.689C478.514 260.949 475.731 255.972 470.356 251.892C465.328 248.075 457.987 244.87 447.277 242.528C436.122 240.578 435.806 234.779 433.009 225.459C432.193 222.657 428.15 221.912 426.405 223.931C426.159 223.666 425.902 223.422 425.637 223.203C425.874 221.866 423.929 218.037 423.994 216.758C424.672 203.417 420.309 196.717 409.42 194.227C407.051 193.685 390.965 193.366 388.656 194.005C378.561 196.796 368.624 205.659 370.145 216.336C366.976 220.478 363.875 223.006 358.986 224.34C351.373 225.307 355.197 333.184 368.419 397.813C374.093 425.542 509.743 378.345 503.613 364.457C504.482 361.912 502.898 359.114 503.613 356.485C504.13 354.582 505.455 353.796 506.122 351.912C507.06 349.261 506.04 345.705 504.983 342.999C504.55 341.651 505.78 340.2 506.122 338.824C507.743 332.335 504.031 332.907 501.355 328.569C501.395 328.556 502.091 325.459 502.088 325.475C502.497 323.264 501.471 320.431 500.576 318.586C499.97 317.338 498.674 316.558 497.386 316.701C498.683 312.296 500.324 308.632 502.088 304.388C505.208 296.909 508.174 289.084 512.654 282.314C514.489 279.542 513.007 276.992 510.038 276.803C500.429 276.192 490.925 274.809 481.541 272.689Z" fill="#AE5D29"/>
<path fill-rule="evenodd" clip-rule="evenodd" d="M466.54 273.595L444.604 310.727C444.604 310.727 449.808 311.246 451.914 312.258C454.02 313.27 463.689 325.565 463.689 325.565L465.226 332.335L461.585 337.794L463.005 341.221C463.005 341.221 464.018 338.899 466.54 337.097C469.062 335.294 474.623 332.335 474.623 332.335C474.623 332.335 472.775 331.346 472.775 330.185C472.775 329.024 471.147 324.071 474.623 322.2C478.099 320.328 496.062 315.949 496.062 315.949L514.267 277.539L466.54 273.595Z" fill="#EC7495"/>
<path fill-rule="evenodd" clip-rule="evenodd" d="M368.688 224.592L438.339 236.82L470.356 251.892L475.582 255.919L444.604 310.727L396.772 319.456L384.586 351.117L387.073 386.805L464.887 377.525L498.452 373.536L506.343 405.398L504.917 418.505L502.844 425.152L419.633 447.623C419.633 447.623 377.262 443.514 369.75 443.514C362.239 443.514 307.169 448.985 307.169 448.985L294.427 447.623C294.427 447.623 266.236 417.903 261.863 407.326C257.491 396.748 248.036 332.451 248.036 332.451L249.077 322.572L273.434 259.876C273.434 259.876 276.686 256.922 280.787 251.892C284.887 246.862 368.688 224.592 368.688 224.592Z" fill="#9DDADB"/>
<path fill-rule="evenodd" clip-rule="evenodd" d="M494.749 315.158C488.454 315.478 482.153 316.975 476.459 319.687C474.129 320.798 472.018 322.403 471.4 325.042C471.088 326.39 471.164 327.783 471.331 329.145C471.456 330.176 471.487 331.492 472.383 332.19C472.536 332.308 472.699 332.399 472.869 332.465C470.768 333.413 468.768 334.552 466.991 335.726C465.366 336.799 463.696 338.452 462.946 340.317C462.884 340.106 462.821 339.908 462.759 339.72C461.481 335.942 459.513 332.847 456.412 330.766C456.06 329.483 452.282 323.959 448.772 324.167C444.929 324.393 441.837 324.674 438.362 326.442C437.095 326.414 435.831 326.432 434.581 326.487C434.366 326.494 434.376 326.786 434.581 326.81C435.595 326.939 436.609 327.081 437.622 327.248C440.032 327.634 442.434 328.123 444.784 328.731C447.604 329.461 450.52 330.193 453.156 331.468C458.266 333.944 461.429 340.418 460.78 346.052C460.672 346.975 460.315 349.768 459.033 349.48C457.95 349.236 457.52 346.975 457.141 346.138C456.127 343.916 454.301 342.464 452.111 341.481C449.538 340.324 446.785 339.543 444.118 338.633C442.608 338.116 441.098 337.598 439.584 337.084C438.035 336.553 436.563 335.82 434.914 336.191C433.918 336.417 433.803 337.605 434.362 338.286C435.213 339.324 436.477 339.63 437.702 340.057C439.32 340.62 440.935 341.183 442.549 341.745C445.045 342.613 447.66 343.346 450.093 344.409L450.017 344.582C449.819 344.527 449.586 344.725 449.625 344.968C449.989 347.215 450.496 349.813 449.933 352.064C449.489 353.849 447.923 355.825 445.889 355.301C446.208 355.009 446.326 354.505 446.111 354.04C445.305 352.317 434.751 345.517 433.81 348.042C433.779 348.132 433.876 348.198 433.953 348.184C434.755 348.017 436.098 349.386 436.74 349.82C437.667 350.445 438.608 351.056 439.525 351.699C440.528 352.401 441.507 353.137 442.462 353.897C443.212 354.495 443.778 355.116 444.639 355.419C444.188 355.634 443.83 356.033 443.677 356.544C443.288 357.874 442.539 359.003 441.237 359.59C439.872 360.201 438.334 359.816 436.897 359.965C434.939 360.163 433.23 361.094 431.803 362.424C428.807 365.223 427.304 370.156 423.113 371.479C420.61 372.267 417.833 371.77 415.298 371.413C412.469 371.013 409.712 370.697 406.861 371.114C404.133 371.514 401.553 372.458 399.06 373.611C396.724 374.691 394.14 375.914 392.068 377.525C391.641 376.209 391.21 374.907 390.883 373.562C390.113 370.385 389.696 367.148 389.595 363.883C389.502 360.775 389.676 357.652 389.943 354.557C390.075 353.012 390.283 351.473 390.415 349.928C390.45 349.539 390.519 349.122 390.571 348.705C394.272 346.52 398.161 344.847 402.08 343.124C402.091 343.121 402.102 343.113 402.112 343.11C402.233 343.054 402.351 343.002 402.473 342.95C402.47 342.943 402.466 342.936 402.459 342.929C402.907 342.655 403.219 342.29 403.407 341.88C409.056 338.133 413.777 333.017 417.298 327.05C418.773 324.549 420.193 321.955 422.124 319.764C424.179 317.426 426.62 316.037 429.64 315.314C433.171 314.467 436.81 313.96 440.428 313.671C442.403 313.515 444.611 313.272 446.764 313.283C448.264 313.293 449.732 313.421 451.079 313.793C453.076 314.342 454.242 315.86 455.496 317.395C456.693 318.868 457.884 320.344 459.002 321.879C460.061 323.334 461.061 324.838 461.929 326.414C462.45 327.359 462.932 328.332 463.339 329.335C463.481 329.69 463.668 330.092 463.755 330.461C463.842 330.832 463.682 331.225 464.099 331.225C462.38 331.249 461.238 335.536 462.946 335.435C465.348 335.295 466.555 332.415 466.085 329.86C465.245 325.3 460.711 319.794 459.814 318.628C457.832 316.05 455.787 312.688 452.614 311.49C452.569 311.473 452.52 311.456 452.475 311.442C453.399 310.566 454.128 309.518 454.826 308.451C455.544 307.354 456.401 306.096 456.638 304.794C456.787 303.964 455.756 303.492 455.266 304.217C454.555 305.277 454.211 306.617 453.68 307.781C453.138 308.962 452.479 310.077 451.958 311.268C450.704 310.882 449.35 310.706 447.972 310.647C449.711 308.292 452.683 303.749 453.041 303.165C454.687 300.463 456.252 297.678 457.749 294.889C459.366 291.867 460.752 288.72 462.3 285.664C463.179 283.931 464.064 282.184 465.04 280.503C465.377 279.926 465.738 279.35 466.147 278.825C466.227 278.721 466.328 278.634 466.422 278.537C466.529 278.478 466.64 278.412 466.703 278.377C467.265 278.054 467.463 277.304 467.859 276.828C468.491 276.061 469.234 275.971 470.185 275.96C472.212 275.939 474.247 276.019 476.271 276.074C479.247 276.158 482.219 276.276 485.191 276.432C486.09 276.481 486.986 276.529 487.885 276.585C492.207 276.842 496.526 277.179 500.835 277.593C504.647 277.957 508.459 278.551 512.275 278.836C507.109 291.114 501.38 303.169 494.894 314.804C494.829 314.922 494.78 315.04 494.749 315.158ZM466.085 346.788C465.252 347.17 464.443 347.646 463.689 348.188C463.814 347.344 463.845 346.454 463.811 345.562C464.432 346.229 465.227 346.611 466.085 346.788ZM501.654 325.668C501.595 325.675 501.54 325.706 501.512 325.765C500.359 328.144 500.841 330.801 502.724 332.666C503.71 333.638 505.859 334.736 505.789 336.334C505.73 337.626 504.324 338.709 503.724 339.776C503.165 340.769 502.956 341.859 503.404 342.936C503.977 344.315 505.577 344.864 506.126 346.219C506.82 347.937 505.692 350.011 504.9 351.508C504.164 352.894 503.213 354.279 502.581 355.745C498.349 357.937 488.746 361.917 487.589 362.14C486.18 362.414 484.767 362.674 483.35 362.918C480.632 363.39 477.907 363.827 475.174 364.213C473.619 364.431 472.06 364.647 470.501 364.817C469.14 364.963 467.605 365.161 466.508 364.137C464.297 362.066 465.536 358.597 466.935 356.506C466.963 356.464 466.963 356.426 466.953 356.391C468.272 356.082 469.588 355.721 470.9 355.467C473.424 354.981 475.966 354.572 478.511 354.207C483.739 353.46 489.003 352.967 494.259 352.47C495.561 352.345 495.575 350.296 494.259 350.418C486.707 351.109 479.118 351.765 471.668 353.22C469.8 353.581 467.945 353.991 466.102 354.453C465.231 354.669 464.297 355.006 463.384 355.016C463.328 355.016 463.272 355.016 463.217 355.012C461.429 354.957 461.169 353.425 462.151 352.151C462.273 351.994 462.398 351.838 462.526 351.689C464.262 349.618 466.425 348.236 468.654 346.805C471.15 346.465 473.64 345.708 476.084 345.152C482.118 343.777 488.152 342.401 494.19 341.029C495.373 340.758 494.87 338.939 493.686 339.206C489.103 340.245 484.521 341.283 479.937 342.321L473.23 343.843C471.89 344.145 470.216 344.753 468.64 344.972C467.862 345.079 467.109 345.093 466.429 344.934C464.231 344.413 464.12 341.665 465.068 340.033C466.13 338.199 468.137 337.053 469.918 336.014C473.004 334.212 476.289 332.916 479.497 331.423C480.066 331.298 480.635 331.173 481.205 331.048C484.517 330.318 488.301 329.96 491.419 328.624C492.353 328.227 491.842 326.755 490.919 326.776C488.499 326.828 485.968 327.689 483.604 328.2C481.045 328.755 478.483 329.307 475.924 329.86C475.667 329.915 474.147 330.402 473.917 330.294C473.772 330.224 473.719 329.718 473.671 329.384C473.514 328.286 473.4 327.134 473.57 326.032C473.945 323.563 476.004 322.403 478.087 321.455C482.726 319.346 487.812 318.027 492.874 317.499C494.04 317.377 495.207 317.301 496.38 317.263C497.758 317.221 498.894 316.978 499.592 318.336C500.689 320.475 501.293 323.226 501.654 325.668ZM495.213 403.239C494.202 399.742 494.477 396.008 493.785 392.442C493.427 390.602 492.939 388.776 492.407 386.98C491.977 385.529 491.26 383.985 491.179 382.471C491.174 382.37 491.293 382.312 491.375 382.358C492.801 383.175 493.896 384.941 494.709 386.327C495.683 387.985 496.426 389.722 497.026 391.548C498.221 395.185 499.202 399.573 497.661 403.239C497.202 404.33 495.591 404.549 495.213 403.239ZM455.769 429.71C454.263 428.658 453.166 427.189 451.888 425.891C450.632 424.616 452.596 422.651 453.852 423.927C454.942 425.033 455.888 426.415 457.171 427.311C457.788 427.741 458.074 428.519 457.669 429.211C457.312 429.822 456.385 430.139 455.769 429.71ZM447.37 389.301C450.119 388.111 452.823 386.816 455.701 385.96C457.42 385.448 458.148 388.13 456.439 388.639C453.789 389.428 451.304 390.605 448.772 391.7C447.146 392.403 445.734 390.008 447.37 389.301ZM418.335 388.468C417.662 386.809 420.35 386.094 421.013 387.73C421.776 389.613 422.65 391.448 423.413 393.331C424.084 394.991 421.397 395.706 420.734 394.07C419.972 392.187 419.097 390.352 418.335 388.468ZM389.676 421.609C389.228 422.206 388.481 422.53 387.776 422.108C387.185 421.753 386.824 420.812 387.278 420.207C388.601 418.442 389.943 416.698 391.494 415.124C392.752 413.849 394.715 415.815 393.458 417.089C392.073 418.494 390.858 420.033 389.676 421.609ZM385.578 235.659C386.853 236.53 387.97 237.589 389.059 238.678C390.325 239.944 388.361 241.908 387.095 240.642C386.177 239.724 385.251 238.793 384.176 238.059C383.555 237.634 383.276 236.845 383.678 236.158C384.038 235.542 384.958 235.236 385.578 235.659ZM427.272 280.372C426.551 281.816 425.903 283.231 425.862 284.872C425.818 286.66 423.04 286.661 423.084 284.872C423.138 282.724 423.929 280.862 424.874 278.969C425.673 277.367 428.068 278.776 427.272 280.372ZM442.57 244.462C444.063 243.466 445.452 245.874 443.972 246.861C442.772 247.661 441.572 248.461 440.372 249.262C438.88 250.257 437.491 247.849 438.97 246.862C440.17 246.062 441.37 245.262 442.57 244.462ZM376.217 307.247C375.962 309.013 373.286 308.257 373.539 306.509C373.929 303.806 374.406 301.139 375.139 298.506C375.619 296.783 378.297 297.52 377.817 299.245C377.084 301.878 376.607 304.545 376.217 307.247ZM366.479 339.075C364.691 339.037 364.691 336.259 366.479 336.296C368.097 336.331 369.687 336.757 371.248 337.146C372.984 337.58 372.244 340.259 370.509 339.826C369.19 339.496 367.847 339.104 366.479 339.075ZM362.884 403.189C362.27 403.488 361.64 403.758 361.019 404.042C359.776 404.61 358.533 405.18 357.291 405.75C354.703 406.939 352.116 408.131 349.532 409.328C344.359 411.723 339.146 414.034 333.961 416.403C328.673 418.82 323.398 421.269 318.131 423.73C315.649 424.889 313.149 426.005 310.653 427.134C308.519 428.099 305.882 429.786 303.539 429.945C303.419 429.953 303.379 429.8 303.447 429.722C304.332 428.715 305.744 428.13 306.907 427.475C308.095 426.807 309.305 426.178 310.51 425.54C313.022 424.208 315.536 422.888 318.072 421.603C323.145 419.036 328.227 416.486 333.31 413.94C338.494 411.343 343.672 408.729 348.901 406.225C351.364 405.045 353.828 403.87 356.295 402.697C357.63 402.062 358.967 401.429 360.304 400.796C360.881 400.522 361.453 400.228 362.043 399.983C362.827 399.658 363.423 399.725 364.232 399.525C365.552 399.199 366.123 400.877 365.11 401.608C364.276 402.21 363.837 402.724 362.884 403.189ZM344.342 431.68C344.057 430.987 344.654 430.145 345.312 429.971C346.1 429.763 346.733 430.243 347.02 430.941C347.782 432.794 348.866 434.494 350.262 435.93C351.51 437.213 349.547 439.179 348.298 437.895C346.549 436.095 345.292 433.992 344.342 431.68ZM330.7 387.081C329.434 385.815 331.399 383.85 332.665 385.117L336.264 388.717C337.53 389.984 335.566 391.948 334.3 390.682L330.7 387.081ZM293.77 381.21C291.182 381.969 288.164 382.668 286.399 384.876C286.313 384.984 286.168 384.846 286.22 384.738C288.479 380.053 294.957 378.41 299.442 376.769C302.614 375.608 305.869 374.645 309.151 373.785C308.823 370.04 309.728 366.025 310.042 362.298C310.378 358.318 310.651 354.328 310.792 350.336C310.935 346.264 310.97 342.164 310.836 338.091C310.702 334.032 310.176 330.024 309.945 325.979C309.923 325.588 310.467 325.569 310.585 325.892C311.948 329.646 312.53 333.803 312.974 337.761C313.431 341.838 313.582 345.904 313.524 350.004C313.464 354.221 313.219 358.427 312.882 362.63C312.723 364.622 312.538 366.612 312.363 368.602C312.23 370.122 312.168 371.629 311.858 373.099C313.838 372.614 315.822 372.154 317.8 371.707C324.107 370.283 330.44 368.962 336.721 367.422C339.804 366.667 342.843 365.762 345.912 364.958C348.802 364.201 351.853 363.284 354.82 362.946C355.879 362.825 356.013 364.274 355.312 364.766C352.901 366.46 349.698 367.639 346.912 368.587C344.117 369.539 341.211 370.223 338.346 370.928C332.37 372.398 326.338 373.6 320.315 374.852C314.3 376.103 308.274 377.344 302.327 378.887C299.463 379.631 296.609 380.377 293.77 381.21ZM279.588 306.877C278.042 307.785 276.646 305.383 278.187 304.478C280.203 303.294 282.352 302.404 284.518 301.537C286.18 300.871 286.895 303.56 285.256 304.216C283.31 304.996 281.4 305.813 279.588 306.877ZM273.989 410.104C272.438 411.004 271.041 408.602 272.587 407.705C274.759 406.446 277.137 405.606 279.387 404.504C280.988 403.72 282.394 406.118 280.788 406.904C278.539 408.005 276.16 408.845 273.989 410.104ZM271.471 351.508C272.97 352.932 274.971 353.603 276.857 354.351C278.502 355.003 277.781 357.689 276.119 357.031C273.768 356.098 271.374 355.247 269.506 353.472C268.207 352.238 270.175 350.276 271.471 351.508ZM288.056 271.929C289.704 272.576 288.982 275.262 287.318 274.608C285.471 273.884 283.564 273.332 281.718 272.608C280.07 271.961 280.792 269.275 282.457 269.928C284.303 270.653 286.21 271.204 288.056 271.929ZM317.315 240.32C319.066 240.025 319.812 242.703 318.053 243C315.871 243.368 313.723 243.799 311.654 244.6C309.983 245.247 309.266 242.56 310.915 241.921C312.985 241.12 315.133 240.689 317.315 240.32ZM326.982 317.28C325.376 316.49 326.785 314.095 328.384 314.881C330.068 315.709 331.814 316.349 333.652 316.741C335.402 317.114 334.656 319.792 332.913 319.42C330.845 318.979 328.876 318.211 326.982 317.28ZM336.113 273.929C337.842 273.456 338.573 276.137 336.851 276.609C333.822 277.439 330.703 277.871 327.652 278.609C325.913 279.03 325.177 276.351 326.913 275.93C329.965 275.191 333.084 274.76 336.113 273.929ZM374.847 260.326C376.605 260.651 375.856 263.329 374.109 263.005C372.249 262.661 370.364 262.656 368.479 262.655C366.689 262.654 366.692 259.875 368.479 259.876C370.621 259.877 372.736 259.935 374.847 260.326ZM501.175 274.842C496.637 274.408 492.093 274.06 487.541 273.8C487.329 273.789 487.121 273.776 486.909 273.765C486.885 273.717 486.854 273.671 486.822 273.622C485.336 271.441 484.243 269.26 483.295 266.794C482.389 264.446 481.51 262.026 480.115 259.907C478.523 257.493 476.374 255.605 474.018 253.968C472.59 254.929 471.264 256.054 470.051 257.247C468.774 258.502 466.81 256.537 468.087 255.282C469.165 254.222 470.315 253.243 471.531 252.358C470.127 251.505 468.694 250.702 467.296 249.904C462.057 246.914 456.693 244.149 451.218 241.621C448.673 240.443 446.097 239.398 443.504 238.339C442.108 237.769 440.73 237.036 439.334 236.377C439.435 235.39 439.14 234.285 438.383 233.636C437.824 233.16 437.39 232.983 436.723 232.646C436.574 232.594 436.484 232.563 436.442 232.545C436.473 232.552 436.563 232.58 436.712 232.629C437.067 232.792 437.095 232.743 436.796 232.486C436.779 231.924 435.671 230.736 435.418 230.156C434.536 228.166 434.262 226.061 432.96 224.248C431.165 221.751 428.151 220.806 425.342 221.654C425.051 218.649 424.974 215.513 423.842 212.832C423.811 212.759 423.71 212.728 423.665 212.807C422.485 214.819 422.384 217.059 422.294 219.379C422.207 221.556 422.29 223.783 422.575 225.946C422.395 226.085 422.211 226.218 422.02 226.346C421.124 226.936 420.159 227.391 419.145 227.728C417.215 228.367 415.19 228.645 413.166 228.742C407.941 228.992 402.556 228.464 397.418 227.568C392.221 226.662 384.253 225.3 379.628 222.699C376.576 220.984 373.761 218.889 370.906 216.861C371.941 213.526 372.205 209.942 371.164 207.125C371.039 206.788 370.511 206.726 370.41 207.125C369.757 209.814 369.566 212.516 368.698 215.173C368.685 215.211 368.671 215.253 368.657 215.291C368.386 215.107 368.115 214.926 367.844 214.745C367.219 214.332 366.369 214.642 365.994 215.232C359.998 224.682 350.502 225.224 340.531 226.912C329.619 228.76 318.651 230.753 308.159 234.369C298.126 237.828 288.536 242.864 280.94 250.387C279.22 252.091 277.612 253.905 276.094 255.8C277.563 255.985 279.019 256.273 280.457 256.725C282.159 257.26 281.428 259.942 279.718 259.404C277.871 258.824 276.002 258.536 274.115 258.393C268.953 265.457 264.929 273.466 261.449 281.35C254.773 296.466 250.428 312.563 248.429 328.952C249.526 328.294 250.644 327.667 251.789 327.084C253.381 326.274 254.785 328.672 253.191 329.483C251.422 330.383 249.704 331.375 248.038 332.451C247.311 339.625 247.029 346.845 247.2 354.054C247.606 371.239 249.925 388.928 255.171 405.324C257.744 413.372 261.153 421.353 266.233 428.154C268.531 431.234 271.142 434.013 274.218 436.329C275.708 437.455 277.284 438.459 278.947 439.306C281.089 440.403 283.88 440.764 285.727 442.317C286.335 442.828 286.804 443.501 287.158 444.262C286.953 445.707 286.929 447.155 287.325 448.6C287.45 449.052 287.79 449.42 288.21 449.597C288.217 449.722 288.217 449.843 288.217 449.961C288.217 450.017 288.3 450.031 288.311 449.976C288.328 449.868 288.345 449.76 288.363 449.649C288.498 449.694 288.64 449.715 288.786 449.715C294.06 449.735 299.34 449.606 304.621 449.427C304.213 448.176 303.77 446.935 303.346 445.684C302.769 443.984 305.453 443.261 306.024 444.945C306.521 446.408 307.04 447.858 307.502 449.327C313.161 449.116 318.817 448.863 324.463 448.677C336.472 448.277 348.478 448.145 360.491 447.892C379.145 447.496 397.936 446.686 416.62 447.478C417.266 446.107 417.989 444.766 418.675 443.413C419.483 441.816 421.879 443.224 421.073 444.816C420.596 445.756 420.102 446.684 419.633 447.623C423.417 447.819 427.198 448.079 430.97 448.434C437.407 449.038 443.781 450.111 450.211 450.778C456.749 451.458 463.144 451.337 469.63 450.257C470.796 450.062 471.484 449.357 471.768 448.482C471.778 448.478 471.786 448.472 471.792 448.461C472.126 448.072 472.438 447.749 472.761 447.468C473.147 447.218 473.563 447.006 474.053 446.818C474.966 446.471 475.917 446.259 476.882 446.117C477.945 445.957 479.021 445.943 480.083 445.811C480.979 445.697 481.854 445.526 482.729 445.318C484.302 444.943 485.795 444.453 487.281 443.803C488.576 443.238 489.745 442.425 490.85 441.539C493.134 439.868 495.113 437.736 496.842 435.52C497.849 434.225 498.797 432.88 499.658 431.481C501.158 429.056 502.435 426.538 503.727 424C504.196 423.247 504.623 422.477 505.014 421.69C502.49 420.946 499.942 420.34 497.266 420.297C495.477 420.268 495.478 417.489 497.266 417.518C500.335 417.567 503.238 418.284 506.122 419.139C506.262 418.766 506.397 418.389 506.522 418.008C506.866 417.213 507.15 416.397 507.386 415.57C507.525 415.195 507.664 414.82 507.803 414.445C508.115 413.146 508.428 411.844 508.744 410.541C509.372 408.457 509.868 406.342 510.233 404.199C510.539 402.789 510.775 401.368 510.935 399.931C511.421 396.447 511.816 392.97 511.844 389.449C511.803 387.278 511.664 385.111 511.428 382.954C511.327 381.488 511.157 380.029 510.928 378.581C510.629 376.428 510.334 374.296 509.837 372.17C509.466 370.732 509.094 369.294 508.723 367.856C507.796 364.859 506.702 361.92 505.442 359.048C505.373 358.868 505.022 358.472 504.81 358.468C504.65 358.465 504.428 358.61 504.501 358.805C504.508 358.822 504.515 358.843 504.522 358.861C504.449 358.697 504.38 358.531 504.307 358.367C504.244 358.215 504.001 357.909 503.814 357.913C503.803 357.913 503.793 357.913 503.779 357.916C503.828 357.881 503.873 357.836 503.918 357.784C505.164 356.308 505.973 354.366 506.866 352.658C507.605 351.247 508.303 349.761 508.504 348.167C508.681 346.767 508.442 345.388 507.563 344.256C506.564 342.967 504.682 342.363 505.727 340.501C506.914 338.383 508.66 336.546 506.921 334.139C506.036 332.913 504.633 332.239 503.592 331.173C502.394 329.94 501.824 328.29 501.856 326.605C501.929 326.647 502.026 326.627 502.06 326.522C503.067 323.48 502.338 320.139 501.307 317.176C500.745 315.568 499.553 315.127 498.168 315.047C504.168 303.325 509.782 291.415 514.785 279.232C514.952 278.832 515.115 278.433 515.278 278.033C515.521 277.436 515.007 276.641 514.413 276.509C510.087 275.56 505.581 275.258 501.175 274.842Z" fill="black"/>
<path fill-rule="evenodd" clip-rule="evenodd" d="M450.834 129.66C450.011 118.983 451.287 107.791 447.18 97.6415C440.019 80.8019 419.94 75.1872 404.373 68.7761C398.137 66.9289 377.153 66.6707 369.851 64.2258C353.325 58.6924 349.376 52.0995 336.245 62.6352C334.028 64.435 332.641 66.3911 331.63 69.0637L331.671 69.0751C331.382 70.1893 331.692 71.3011 332.343 72.1503C326.649 77.9845 324.267 86.7313 327.188 94.4976C336.722 114.708 336.273 125.635 333.202 147.362C329.19 167.645 338.357 175.054 353.537 186.091C352.919 187.292 352.791 188.889 353.596 189.949C371.15 214.677 404.248 226.484 432.607 213.933C444.118 208.796 449.257 196.507 452.189 185.419C455.606 173.002 456.656 159.919 453.874 147.271C452.752 141.422 451.291 135.615 450.834 129.66Z" fill="#AE5D29"/>
<path fill-rule="evenodd" clip-rule="evenodd" d="M325.106 99.3698L335.544 106.34L372.905 66.855L360.472 57.045C360.472 57.045 337.916 73.7573 333.48 78.168C329.045 82.5788 325.106 99.3698 325.106 99.3698Z" fill="#9FD8E5"/>
<path fill-rule="evenodd" clip-rule="evenodd" d="M349.58 11.358C351.711 11.0373 353.32 12.3625 354.085 14.2304L354.125 14.331C354.371 14.9666 354.645 15.5848 354.939 16.1926C360.271 13.5704 367.88 14.2442 371.254 19.5547C373.662 23.3473 372.193 27.8485 371.285 31.8705L370.689 34.5205C371.841 35.2553 372.71 36.5712 372.669 37.9339L372.664 38.0388L372.422 41.7342C373.191 40.9528 373.894 40.1018 374.521 39.1953C374.954 38.4 375.422 37.6185 375.924 36.8614C378.88 32.4053 385.514 36.2779 383.075 41.05C382.607 41.9704 382.081 42.8422 381.516 43.6827C380.879 44.9226 380.355 46.1972 379.954 47.5066C381.107 48.0102 381.994 49.1286 382.088 50.8165C382.306 54.7585 380.241 58.0476 376.957 60.1142C375.99 60.722 374.992 60.84 374.088 60.6143C373.929 60.8296 373.769 61.045 373.617 61.2638C374.926 62.33 376.108 63.5456 377.123 64.8932C380.179 64.4348 383.252 64.2194 386.325 64.2125C390.08 62.3682 394.577 62.4064 398.614 63.0976C401.212 63.5422 403.707 64.407 406.263 65.0287C408.959 65.6816 411.696 65.7059 414.422 66.1505C417.859 66.7097 420.873 68.3004 422.769 70.8392C424.851 70.9018 427.04 71.7562 428.856 72.9162C433.083 75.6183 437.285 78.3586 441.501 81.0781C443.12 82.1222 443.725 83.7889 443.427 85.6479L443.407 85.7669L443.265 86.5379L443.598 87.0125C444.889 88.8392 446.293 90.7525 447.128 92.7687C448.673 95.002 450.069 97.3429 451.306 99.7567C452.973 103.001 454.348 106.439 455.28 109.968C455.512 110.86 455.744 111.76 455.897 112.67C456.115 113.955 455.779 114.952 455.595 116.185C455.367 117.748 455.283 119.331 455.041 120.898C454.878 121.936 453.998 122.447 453.077 122.475C453.423 125.118 453.672 127.778 453.911 130.418C454.248 134.19 454.476 137.972 454.674 141.754C455.692 143.237 457.774 144.411 459.278 144.817C461.36 145.377 463.543 144.769 465.511 144.057C466.748 143.609 467.763 145.168 467.16 146.21C465.265 149.482 461.211 149.468 458.142 148.02C456.843 147.408 455.703 146.523 454.857 145.37C454.909 146.467 454.965 147.565 455.02 148.666L455.072 149.663C455.696 161.309 457.043 173.356 454.861 184.887C451.081 204.861 434.592 220.07 414.45 221.251C403.88 221.871 395.079 218.741 390.702 216.995C386.325 215.25 388.026 211.69 391.064 212.707C396.299 214.46 405.914 217.072 414.519 215.944C434.801 213.286 451.999 203.124 450.232 159.356C449.982 153.149 449.21 146.94 449.044 140.733C448.884 134.665 448.943 128.594 448.677 122.53L448.588 120.461C448.483 118.044 448.372 115.615 448.191 113.194C447.973 112.257 447.793 111.305 447.526 110.385C446.802 107.88 445.856 105.446 444.682 103.122C444.422 103.32 444.131 103.463 443.816 103.518C441.422 103.949 439.177 103.827 436.935 102.827C435.889 102.365 434.967 101.75 434.108 100.99C433.699 100.632 433.426 100.285 433.211 99.9234C432.126 99.9408 431.042 99.6143 430.363 98.8329C429.588 97.9422 429.46 97.0222 429.763 96.1705L429.795 96.0856L429.718 96.0578C428.804 98.43 426.981 100.517 424.982 101.927C421.823 104.164 417.87 104.81 414.079 104.869C409.894 104.932 405.48 104.286 401.351 103.626C400.259 103.452 399.175 103.254 398.111 102.987C398.07 103.028 398.028 103.077 397.983 103.119C394.439 106.519 389.453 107.394 384.956 105.453C382.358 104.331 380.179 102.525 378.252 100.455C378.225 101.538 378.169 102.622 378.076 103.695L378.037 104.121C377.845 106.12 377.476 108.24 375.969 109.683C373.534 112.02 370 111.083 367.19 109.561C367.194 109.634 367.194 109.711 367.194 109.787C367.952 112.371 368.715 114.959 369.477 117.546L369.641 118.097C370.195 119.935 370.803 121.774 370.97 123.697C371.289 127.372 368.85 131.001 364.775 129.768C362.638 129.124 360.926 127.322 359.283 125.88L358.248 124.982C360.926 133.759 362.783 142.848 362.956 152.007C362.967 152.504 362.541 152.879 362.07 152.896C360.968 152.941 359.783 152.722 358.674 152.281C358.612 152.278 358.55 152.274 358.484 152.264C356.592 151.99 354.836 151.305 353.287 150.295C353.644 151.43 353.803 152.649 353.71 153.924C353.685 154.233 353.204 154.341 353.134 154C352.241 149.593 347.096 146.262 342.661 147.106C337.901 148.013 334.395 152.118 333.535 156.789C332.614 161.808 334.377 167.612 337.644 171.484C339.148 173.27 341.126 174.759 343.475 175.135C344.549 175.305 345.665 175.246 346.708 174.94C347.151 174.808 347.567 174.624 347.99 174.45C348.606 174.2 349.327 174.162 349.909 173.898C351.229 173.304 352.556 174.523 351.887 175.881C351.305 177.066 350.782 177.865 349.815 178.476C350.598 179.434 351.309 180.768 351.572 181.126C352.916 182.946 354.281 184.665 355.813 186.329C357.372 188.017 359.073 189.559 360.871 190.986L361.627 191.585C363.359 192.962 364.867 194.238 366.088 196.213C367.052 197.773 365.804 199.888 363.999 199.863C358.352 199.784 354.247 194.81 351.322 190.465C350.907 189.843 350.515 189.187 350.151 188.513C350.02 188.725 349.874 188.923 349.711 189.104L350.034 189.972C350.99 192.528 346.87 194.199 345.675 191.813C344.806 190.083 343.797 188.437 342.675 186.881C342.013 186.787 341.365 186.384 341.005 185.863C340.094 184.54 339.072 183.203 338.209 181.793C337.731 181.338 337.239 180.9 336.737 180.473C336.591 180.601 336.442 180.73 336.3 180.865C335.67 182.307 334.89 183.623 333.923 184.863L333.716 185.127C331.864 187.467 329.452 189.862 326.468 190.434C325.557 190.607 324.68 189.472 325.487 188.746C327.576 186.863 330.047 185.582 331.973 183.481C332.922 182.445 333.793 181.305 334.543 180.11L334.713 179.834C334.838 179.629 334.966 179.424 335.098 179.216C334.228 178.622 333.359 178.024 332.489 177.427C330.095 179.477 326.978 180.415 324.33 182.113L324.067 182.286C321.673 183.89 319.151 180.341 321.07 178.392C323.186 176.253 324.952 173.701 326.826 171.322C325.945 169.695 325.528 167.77 325.372 165.826C325.31 165.275 325.262 164.724 325.214 164.173C323.869 164.194 322.518 163.732 321.375 162.937L320.942 162.628C319.552 163.072 318.094 163.288 316.698 163.249C313.413 163.152 312.069 159.391 314.123 157.012C316.22 154.58 319.889 154.049 322.795 155.23C322.889 155.181 322.986 155.129 323.079 155.077C322.941 154.438 322.972 153.858 323.129 153.349L323.084 153.039C322.444 152.055 322.024 150.933 321.865 149.747C321.739 148.807 321.764 147.876 321.981 146.949C322.053 146.64 322.203 146.32 322.318 145.998C322.082 145.4 321.943 144.782 321.9 144.16C321.834 144.081 321.768 144 321.705 143.913C320.263 141.883 320.554 139.436 321.927 137.794C321.933 137.689 321.943 137.585 321.957 137.481C321.877 137.299 321.803 137.116 321.736 136.931C320.395 135.575 319.41 133.943 319.594 131.921C319.701 130.731 320.189 129.66 320.928 128.859C320.797 128.471 320.784 128.021 320.943 127.645C319.764 124.504 319.913 120.72 320.762 117.206C320.574 116.671 320.477 116.091 320.498 115.476C320.595 112.868 322.847 110.471 325.515 110.503C325.836 110.505 326.137 110.547 326.426 110.609L326.43 110.547C326.532 109.764 326.747 109.04 327.06 108.391C326.906 108.335 326.763 108.255 326.638 108.149C324.929 109.063 323.12 109.761 321.223 110.238C319.829 110.588 318.4 108.999 319.267 107.687C319.67 107.078 320.113 106.531 320.591 106.032C319.912 106.035 319.222 106.082 318.523 106.172C317.269 106.335 315.87 105.477 315.055 104.317C314.044 105.303 313.029 106.286 312.014 107.269C309.443 109.766 305.559 107.929 305.154 104.637C304.388 104.432 303.674 104.084 303.047 103.588C298.994 105.352 294.632 106.321 290.173 106.505C286.972 106.637 285.101 102.9 286.598 100.26C287.602 98.489 288.85 96.8983 290.287 95.516C288.056 96.2002 285.752 96.6934 283.4 97.0095C282.128 97.1796 280.33 96.1238 279.821 94.9534C277.874 90.4522 278.04 85.7599 280.282 81.3803C280.368 81.2066 280.465 81.0399 280.559 80.8732C280.791 80.2932 281.044 79.7201 281.318 79.1575C278.56 76.2747 278.321 71.9889 279.807 68.4011C279.211 67.4321 278.982 66.2651 279.388 65.2093C280.542 62.1703 282.205 59.3639 284.304 56.9536C284.103 56.5646 283.926 56.1513 283.777 55.7067C282.596 52.112 283.965 47.774 286.726 45.2699C288.462 43.6931 290.457 42.7484 292.588 42.144C293.485 40.5533 294.639 39.1189 295.983 37.9103C296.035 37.7957 296.087 37.681 296.146 37.5664C298.238 33.614 302.049 31.4954 306.134 31.0056C306.294 29.4601 307.333 27.984 308.843 27.5047C309.259 26.1675 309.879 24.8894 310.732 23.7294C312.072 21.9025 314.3 21.0412 316.4 22.2394C317.55 22.8958 318.652 23.6495 319.684 24.4831C320.148 24.2651 320.674 24.124 321.267 24.079L321.416 24.0698L324.832 23.8961C326.263 23.2605 327.691 22.5937 329.122 21.9442C329.981 21.2322 330.94 20.6383 331.987 20.1972C333.172 19.7005 334.384 19.4192 335.6 19.3254C336.588 19.0024 337.582 18.7176 338.594 18.4953C340.97 17.9744 343.458 17.6826 345.925 17.7069C345.975 17.0669 346 16.4192 345.995 15.7638L345.99 15.4355C345.935 13.3342 347.608 11.6567 349.58 11.358ZM347.186 179.476C346.846 179.549 346.503 179.608 346.16 179.65C346.264 179.907 346.368 180.164 346.469 180.421C346.746 180.577 347.026 180.726 347.307 180.865C347.224 180.393 347.175 179.917 347.186 179.476ZM329.386 174.174L329.156 174.599C329.118 174.668 329.081 174.737 329.045 174.805C329.534 174.766 330.026 174.777 330.511 174.832L330.509 174.781C330.447 174.759 330.385 174.74 330.325 174.711C329.99 174.55 329.679 174.369 329.386 174.174ZM339.006 154.775C342.071 154.954 344.668 155.425 347.456 156.769L347.695 156.887C350.158 158.113 354.233 160.377 353.89 163.625C353.793 164.548 353.124 165.521 352.071 165.448C349.185 165.25 347.536 162.333 345.582 160.513C343.61 158.679 341.189 156.793 338.802 155.532C338.464 155.355 338.597 154.793 338.964 154.775L339.006 154.775ZM325.106 111.989C324.372 112.013 324.618 112.729 324.995 112.132C325.026 112.083 325.065 112.034 325.106 111.989ZM364.753 64.2257C357.797 64.4091 350.796 68.5265 345.585 72.6884C341.052 76.3091 337.137 80.6158 333.671 85.2577C332.779 87.5694 332.013 89.9294 331.367 92.3068C330.94 93.8767 330.674 95.4639 330.317 97.0477L330.206 97.5332C329.926 98.0584 329.717 98.6234 329.566 99.2073C330.197 99.8422 331.017 100.297 331.919 100.512C332.21 100.582 332.451 100.732 332.642 100.932C333.368 99.7168 334.003 98.4345 334.372 97.0751L334.386 97.0122C335.781 94.7203 337.298 92.4996 338.923 90.3549C343.406 84.4332 348.343 79.0359 354.278 74.5451C358.778 71.1414 363.809 68.474 369.158 66.7409C367.849 65.682 366.362 64.8442 364.753 64.2257Z" fill="black"/>
<path fill-rule="evenodd" clip-rule="evenodd" d="M427.704 193.012C425.146 193.753 422.401 193.819 419.794 193.054C417.429 192.359 415.001 190.832 413.261 188.81C411.715 187.014 410.714 184.832 410.753 182.503C410.758 182.236 410.853 182.014 410.999 181.842C411.157 181.656 411.377 181.529 411.612 181.474C411.854 181.417 412.111 181.437 412.329 181.536C412.526 181.626 412.695 181.778 412.801 182.001C413.069 182.353 413.335 182.699 413.603 183.035C415.753 185.692 417.836 187.677 421.069 188.389C422.824 188.775 424.576 188.604 426.184 188.015C427.905 187.383 429.461 186.274 430.68 184.854C431.231 184.212 431.881 183.95 432.517 183.946C433.238 183.941 433.951 184.276 434.487 184.812C435.015 185.338 435.368 186.053 435.4 186.802C435.428 187.458 435.214 188.144 434.644 188.756C432.768 190.772 430.336 192.249 427.704 193.012ZM427.625 159.742C430.247 161.336 434.242 165.053 431.421 169.005C428.101 172.49 423.321 168.495 420.966 166.688C418.782 165.287 416.328 168.889 418.354 170.524C435.375 183.13 442.282 160.158 428.951 157.867C427.483 157.615 426.938 159.248 427.625 159.742ZM403.1 152.727C402.257 152.188 401.266 152.003 400.167 152.503C399.309 152.893 397.803 154.195 396.755 155.907C396.039 157.078 395.53 158.451 395.636 159.882C395.661 160.214 395.538 160.459 395.344 160.64C395.191 160.783 394.971 160.889 394.711 160.921C394.491 160.949 394.244 160.924 394.044 160.862C393.663 160.743 393.461 160.495 393.385 160.293C392.651 158.344 392.967 156.169 393.79 154.206C394.899 151.558 396.914 149.34 398.235 148.625C400.494 147.4 403.16 147.344 405.422 148.591C407.348 149.653 408.553 151.367 409.75 153.114C410.005 153.485 410.258 153.854 410.519 154.216C411.042 154.941 411.094 155.661 410.892 156.278C410.667 156.962 410.095 157.539 409.379 157.841C408.717 158.12 407.949 158.159 407.269 157.873C406.695 157.63 406.168 157.158 405.834 156.357C405.273 155.007 404.337 153.519 403.1 152.727ZM445.896 155.729C445.319 156.03 444.868 156.121 444.228 155.929C443.874 155.822 443.524 155.619 443.25 155.345C442.978 155.073 442.782 154.735 442.706 154.361C442.519 153.436 442.013 152.57 441.293 152.006C440.677 151.524 439.899 151.268 439.037 151.412C438.106 151.568 437.219 152.165 436.609 152.869C436.405 153.104 436.245 153.372 436.084 153.638C435.783 154.134 435.49 154.596 435.076 154.961C434.918 155.1 434.681 155.196 434.452 155.196C434.358 155.196 434.264 155.181 434.173 155.153C433.247 154.223 433.069 153.517 433.099 152.818C433.13 152.084 433.419 151.341 433.887 150.648C434.983 149.022 437.065 147.688 438.469 147.386C440.393 146.973 442.303 147.469 443.835 148.544C445.411 149.65 446.578 151.367 446.943 153.302C447.03 153.768 446.993 154.271 446.815 154.707C446.642 155.133 446.34 155.498 445.896 155.729ZM407.342 135.39C406.188 136.515 404.822 136.689 403.439 136.844C402.671 136.931 402.058 137.001 401.455 137.137C399.797 137.512 398.157 138.076 396.662 138.888C395.099 139.737 393.395 140.761 392.169 142.073C391.878 142.385 391.603 142.713 391.328 143.041C391.077 143.34 390.836 143.629 390.581 143.906C390.288 144.226 390.011 144.56 389.734 144.894C389.564 145.175 389.53 145.245 389.495 145.317C389.444 145.425 389.383 145.546 389.315 145.676C389.221 145.854 389.11 146.049 388.995 146.226C388.802 146.549 388.699 146.638 388.61 146.678C388.462 146.744 388.322 146.776 388.186 146.759C388.058 146.742 387.938 146.681 387.819 146.58C387.227 146.08 387.052 145.257 387.07 144.385C387.097 143.061 387.585 141.594 388.035 140.693C389.082 138.599 390.533 136.422 392.278 134.859C394.27 133.075 396.449 131.724 398.951 130.793C400.506 130.215 402.307 129.684 404.001 129.751C405.221 129.799 406.385 130.162 407.347 131.067C407.937 131.623 408.22 132.414 408.22 133.204C408.22 134.01 407.926 134.821 407.342 135.39ZM448.244 145.693C448.171 145.813 448.069 145.896 447.956 145.946C447.837 145.998 447.705 146.013 447.578 145.992C447.452 145.971 447.332 145.913 447.236 145.826C447.145 145.742 447.075 145.63 447.044 145.494C446.278 142.126 444.79 139.621 441.613 138.005C440.051 137.211 438.254 136.706 436.553 136.303C436.059 136.186 435.537 136.11 435.011 136.033C433.362 135.793 431.702 135.517 430.627 134.184C429.98 133.381 429.708 132.354 429.862 131.415C430.006 130.531 430.523 129.72 431.462 129.234C433.799 128.025 436.704 129.212 439.064 130.222C439.239 130.297 439.411 130.371 439.579 130.442C441.888 131.417 443.993 132.703 445.724 134.543C447.097 136.003 448.369 138.161 448.882 140.381C449.308 142.228 449.208 144.113 448.244 145.693Z" fill="black"/>
</svg>
